HIERARCHY
ROOT Hips
{
    OFFSET 0.000000 0.000000 0.000000
    CHANNELS 6 Xposition Yposition Zposition Zrotation Xrotation Yrotation
    JOINT Spine
    {
        OFFSET -0.000000 14.517291 0.000000
        CHANNELS 3 Zrotation Xrotation Yrotation
        JOINT Spine1
        {
            OFFSET -0.000000 37.558300 0.000000
            CHANNELS 3 Zrotation Xrotation Yrotation
            JOINT Neck
            {
                OFFSET -0.000000 37.404057 3.400369
                CHANNELS 3 Zrotation Xrotation Yrotation
                JOINT Head
                {
                    OFFSET -0.000000 24.785618 -3.540803
                    CHANNELS 3 Zrotation Xrotation Yrotation
                    End Site
                    {
                        OFFSET -0.000000 35.408028 0.000000
                    }
                }
            }
            JOINT LeftShoulder
            {
                OFFSET 6.992933 33.973492 -0.192664
                CHANNELS 3 Zrotation Xrotation Yrotation
                JOINT LeftArm
                {
                    OFFSET 21.527611 0.000000 0.000000
                    CHANNELS 3 Zrotation Xrotation Yrotation
                    JOINT LeftForeArm
                    {
                        OFFSET 56.353916 0.000000 0.000000
                        CHANNELS 3 Zrotation Xrotation Yrotation
                        JOINT LeftHand
                        {
                            OFFSET 47.774071 0.000000 0.000000
                            CHANNELS 3 Zrotation Xrotation Yrotation
                            End Site
                            {
                                OFFSET 26.556021 0.000000 0.000000
                            }
                        }
                    }
                }
            }
            JOINT RightShoulder
            {
                OFFSET -7.065357 33.973492 -0.192664
                CHANNELS 3 Zrotation Xrotation Yrotation
                JOINT RightArm
                {
                    OFFSET -21.527611 0.000000 0.000000
                    CHANNELS 3 Zrotation Xrotation Yrotation
                    JOINT RightForeArm
                    {
                        OFFSET -56.353916 0.000000 0.000000
                        CHANNELS 3 Zrotation Xrotation Yrotation
                        JOINT RightHand
                        {
                            OFFSET -47.774071 0.000000 0.000000
                            CHANNELS 3 Zrotation Xrotation Yrotation
                            End Site
                            {
                                OFFSET -26.556021 0.000000 0.000000
                            }
                        }
                    }
                }
            }
        }
    }
    JOINT LeftUpLeg
    {
        OFFSET 17.704014 0.000000 0.000000
        CHANNELS 3 Zrotation Xrotation Yrotation
        JOINT LeftLeg
        {
            OFFSET -0.000000 -81.181816 0.000000
            CHANNELS 3 Zrotation Xrotation Yrotation
            JOINT LeftFoot
            {
                OFFSET -0.000000 -62.821102 0.000000
                CHANNELS 3 Zrotation Xrotation Yrotation
                JOINT LeftToeBase
                {
                    OFFSET -0.000000 -11.507608 26.556021
                    CHANNELS 3 Zrotation Xrotation Yrotation
                    End Site
                    {
                        OFFSET -0.000000 0.000000 7.081605
                    }
                }
            }
        }
    }
    JOINT RightUpLeg
    {
        OFFSET -17.704014 0.000000 0.000000
        CHANNELS 3 Zrotation Xrotation Yrotation
        JOINT RightLeg
        {
            OFFSET -0.000000 -81.181816 0.000000
            CHANNELS 3 Zrotation Xrotation Yrotation
            JOINT RightFoot
            {
                OFFSET -0.000000 -62.821102 0.000000
                CHANNELS 3 Zrotation Xrotation Yrotation
                JOINT RightToeBase
                {
                    OFFSET -0.000000 -11.507608 26.556021
                    CHANNELS 3 Zrotation Xrotation Yrotation
                    End Site
                    {
                        OFFSET -0.000000 0.000000 7.081605
                    }
                }
            }
        }
    }
}
MOTION
Frames:    12
Frame Time:    0.008333
8.150883    152.988708    -120.452950    -1.101208    -11.122553    31.535355    0.371574    -1.659992    1.588938    -6.501675    0.292220    0.544380    7.807787    -4.121081    -12.345697    8.918005    6.362496    -13.548940    5.607379    8.210158    -16.755173    -36.024658    22.550547    -43.949787    -8.857818    -5.560533    -117.511108    2.915053    -19.997551    -5.434944    -13.922564    -3.540313    -5.291535    21.072721    -21.276644    55.176407    -17.359343    -16.811304    43.725773    0.235701    -9.912440    32.018402    16.824610    6.816474    -2.367427    -13.580747    39.039032    -19.804173    15.741110    -30.466133    50.306808    0.000000    0.000000    0.000000    -10.464789    -17.781200    -11.314657    12.295675    27.906893    -13.825925    0.322180    5.603204    -7.810123    0.000000    0.000000    0.000000    
7.985287    153.068130    -120.195900    -1.177032    -10.857209    31.631996    0.433091    -1.607627    1.508353    -6.439518    0.188731    0.511384    7.759444    -4.165352    -12.353579    8.855648    6.364147    -13.556551    5.641919    8.437590    -16.533012    -35.788223    22.558327    -44.383411    -8.823491    -5.740754    -117.435448    2.872484    -20.092239    -5.495805    -14.005275    -3.511926    -5.322711    21.158207    -21.338390    55.223385    -17.321135    -16.789047    43.768578    0.175633    -9.914557    32.014786    16.858454    6.686215    -2.346447    -13.462429    38.741314    -19.915482    15.455196    -30.479465    50.245869    0.000000    0.000000    0.000000    -10.499999    -17.999353    -11.417819    12.363524    27.978058    -13.858253    0.225150    5.522340    -7.841690    0.000000    0.000000    0.000000    
7.830514    153.147919    -119.945122    -1.224408    -10.601099    31.704720    0.499093    -1.524877    1.442590    -6.445481    0.086458    0.483514    7.722885    -4.165568    -12.401940    8.904433    6.312335    -13.592102    5.654408    8.352192    -16.570580    -35.848866    22.553299    -44.278549    -8.837754    -5.674050    -117.461464    2.902986    -20.059246    -5.452357    -14.011206    -3.537807    -5.347006    21.231611    -21.391335    55.263107    -17.245014    -16.747530    43.806839    0.178220    -9.895384    32.011570    16.859451    6.605099    -2.304822    -13.317167    38.420647    -20.077383    15.267114    -30.300562    50.140884    0.000000    0.000000    0.000000    -10.535995    -18.221487    -11.510374    12.371394    28.083735    -13.901499    0.177920    5.428892    -7.800323    0.000000    0.000000    0.000000    
7.666889    153.218048    -119.699951    -1.270890    -10.315228    31.783842    0.519198    -1.480095    1.384764    -6.411178    0.006245    0.459631    7.649456    -4.237114    -12.435942    8.968190    6.355106    -13.616728    5.660020    8.378705    -16.585979    -35.774490    22.573067    -44.346828    -8.812137    -5.775479    -117.445229    2.898969    -20.109673    -5.441248    -14.198978    -3.671610    -5.349848    21.552019    -21.371231    55.207447    -17.148430    -16.645708    43.959396    0.067758    -9.834610    32.026779    16.851528    6.494543    -2.279879    -13.210383    38.089939    -20.161324    15.031878    -30.219240    50.035542    0.000000    0.000000    0.000000    -10.603760    -18.483776    -11.605188    12.405061    28.221815    -13.934462    0.136319    5.330785    -7.795575    0.000000    0.000000    0.000000    
7.514410    153.300049    -119.462288    -1.317223    -10.015569    31.847340    0.567110    -1.453127    1.322548    -6.415895    -0.068977    0.434523    7.616033    -4.234331    -12.469843    8.976973    6.308069    -13.641249    5.677028    8.346667    -16.595701    -35.773441    22.629110    -44.348476    -8.815614    -5.843654    -117.461411    2.952612    -20.185225    -5.398237    -14.216949    -3.671011    -5.365411    21.597689    -21.387125    55.226181    -17.147024    -16.671556    44.012318    0.120723    -9.837637    31.975670    16.814320    6.389197    -2.226940    -13.066589    37.733360    -20.243870    14.765060    -30.129726    49.913567    0.000000    0.000000    0.000000    -10.685234    -18.734867    -11.591527    12.522090    28.287832    -14.001701    0.082821    5.241916    -7.900469    0.000000    0.000000    0.000000    
7.358488    153.380753    -119.219765    -1.367249    -9.710715    31.924929    0.571782    -1.443956    1.237812    -6.356340    -0.165120    0.400942    7.582024    -4.215192    -12.482173    9.001998    6.317908    -13.645119    5.633438    8.334462    -16.646002    -35.786480    22.579552    -44.278049    -8.848586    -5.786523    -117.452034    2.978436    -20.181927    -5.395201    -14.248049    -3.628999    -5.314264    21.639151    -21.431726    55.205097    -17.135435    -16.673513    44.072800    0.069699    -9.848424    31.886047    16.774717    6.264029    -2.161987    -12.913124    37.393291    -20.246374    14.396859    -30.158495    49.742538    0.000000    0.000000    0.000000    -10.763384    -18.990143    -11.599476    12.607220    28.371223    -14.007901    0.054827    5.131581    -8.037010    0.000000    0.000000    0.000000    
7.204737    153.459076    -119.003555    -1.385849    -9.414271    31.977781    0.562951    -1.363886    1.178498    -6.350151    -0.297853    0.373610    7.681898    -4.237172    -12.501736    8.906780    6.358566    -13.697059    5.673805    8.276257    -16.712408    -35.847599    22.615080    -44.221508    -8.814425    -5.810062    -117.441978    3.033510    -20.147760    -5.311213    -14.197187    -3.678237    -5.325929    21.637430    -21.370331    55.216053    -17.151167    -16.687986    44.068108    0.067282    -9.858313    31.899317    16.716654    6.108856    -2.080869    -12.764633    37.071354    -20.269922    14.086778    -29.923292    49.478619    0.000000    0.000000    0.000000    -10.869375    -19.248610    -11.545980    12.722463    28.472067    -14.095343    0.029858    5.029926    -8.107534    0.000000    0.000000    0.000000    
7.045636    153.547409    -118.776253    -1.442498    -9.101086    32.072140    0.824734    -1.127848    0.862863    -6.642842    -0.721608    0.242982    7.435564    -4.329391    -12.436372    9.217463    6.685423    -13.588925    5.609335    8.408891    -16.147161    -35.590427    22.824848    -44.401581    -8.799684    -5.927560    -117.533272    3.028234    -20.258776    -5.265676    -14.257286    -3.652592    -5.190765    22.020239    -21.336855    55.463394    -17.104156    -16.608864    44.249367    0.019695    -9.778316    31.823833    16.680525    5.956453    -2.048965    -12.637074    36.739193    -20.308334    13.746663    -29.925100    49.373711    0.000000    0.000000    0.000000    -10.947479    -19.518755    -11.634514    12.748092    28.574398    -14.137354    0.006602    4.941041    -8.109897    0.000000    0.000000    0.000000    
6.883018    153.641632    -118.544495    -1.493828    -8.817920    32.166321    0.827129    -1.077635    0.750110    -6.574459    -0.828710    0.199942    7.441762    -4.387520    -12.446169    9.187304    6.811048    -13.616817    5.611732    8.399631    -16.133289    -35.589947    22.843473    -44.434280    -8.821653    -5.929778    -117.522858    3.116624    -20.295347    -5.206752    -14.270860    -3.673326    -5.200315    22.066181    -21.322369    55.510567    -17.066708    -16.592796    44.271236    0.006883    -9.776963    31.801529    16.656801    5.831380    -2.044157    -12.515875    36.407845    -20.321335    13.433606    -29.823278    49.209206    0.000000    0.000000    0.000000    -11.013209    -19.743261    -11.630556    12.839656    28.620037    -14.298537    -0.043299    4.862425    -8.109017    0.000000    0.000000    0.000000    
6.727409    153.734161    -118.328705    -1.552159    -8.494085    32.290310    0.861364    -1.075925    0.596095    -6.568628    -0.935759    0.142430    7.433056    -4.382435    -12.427333    9.201618    6.873719    -13.599090    5.595691    8.345735    -16.142124    -35.619724    22.864815    -44.352436    -8.842338    -5.919049    -117.535759    3.160461    -20.323092    -5.201045    -14.290536    -3.664359    -5.182899    22.190241    -21.349609    55.598797    -16.999342    -16.543747    44.322433    0.049419    -9.733536    31.740059    16.612997    5.634509    -2.085756    -12.426796    36.107914    -20.302240    13.123318    -29.723080    49.071613    0.000000    0.000000    0.000000    -11.123188    -20.017471    -11.646571    12.958761    28.694746    -14.455832    -0.088896    4.794069    -8.145000    0.000000    0.000000    0.000000    
6.575200    153.826614    -118.104507    -1.601109    -8.196783    32.425194    0.920457    -1.036631    0.439948    -6.595481    -1.046449    0.083701    7.380864    -4.439250    -12.441215    9.281936    7.041387    -13.614781    5.612223    8.297182    -16.111814    -35.620167    22.939388    -44.337555    -8.824599    -5.975871    -117.558968    3.152260    -20.353952    -5.174790    -14.289415    -3.675131    -5.205479    22.279547    -21.349468    55.707870    -16.915537    -16.505478    44.368309    0.013617    -9.730985    31.696772    16.578169    5.463144    -2.114598    -12.324505    35.809349    -20.293808    12.829495    -29.593126    48.910297    0.000000    0.000000    0.000000    -11.219612    -20.246059    -11.731773    13.024939    28.765324    -14.494400    -0.119244    4.708276    -8.215174    0.000000    0.000000    0.000000    
6.425865    153.916428    -117.884087    -1.655922    -7.899563    32.548527    0.978639    -1.012758    0.313811    -6.630716    -1.152899    0.035267    7.383117    -4.509504    -12.448626    9.318735    7.225583    -13.639841    5.644125    8.255951    -16.125271    -35.642967    22.946821    -44.316566    -8.832095    -5.951433    -117.571594    3.221903    -20.348379    -5.144145    -14.255626    -3.707607    -5.232214    22.305429    -21.315941    55.772610    -16.875626    -16.452221    44.360973    0.086895    -9.673443    31.678471    16.541672    5.296257    -2.094778    -12.179955    35.516438    -20.341045    12.524899    -29.492371    48.744419    0.000000    0.000000    0.000000    -11.296841    -20.475094    -11.825485    13.058950    28.819159    -14.508943    -0.170434    4.619765    -8.286059    0.000000    0.000000    0.000000    
